<?xml version="1.0" standalone="no"?>
<!DOCTYPE svg PUBLIC "-//W3C//DTD SVG 20010904//EN"
 "http://www.w3.org/TR/2001/REC-SVG-20010904/DTD/svg10.dtd">
<svg version="1.0" xmlns="http://www.w3.org/2000/svg"
 width="256.000000pt" height="256.000000pt" viewBox="0 0 256.000000 256.000000"
 preserveAspectRatio="xMidYMid meet">
<metadata>
Created by potrace 1.14, written by Peter Selinger 2001-2017
</metadata>
<g transform="translate(0.000000,256.000000) scale(0.100000,-0.100000)"
fill="#000000" stroke="none">
<path d="M1158 2554 c-2 -1 -27 -5 -57 -9 -465 -58 -880 -403 -1032 -855 -90
-270 -88 -579 6 -840 136 -376 432 -663 812 -786 56 -18 119 -35 140 -39 21
-3 62 -9 92 -14 112 -18 389 -1 464 28 15 6 27 9 27 6 0 -8 174 57 240 90 63
32 216 131 245 158 7 7 42 40 77 74 198 187 326 438 372 726 17 106 13 332 -8
432 -94 444 -399 802 -814 954 -84 31 -179 56 -257 67 -48 7 -302 14 -307 8z
m92 -114 c8 -5 11 -10 5 -10 -5 0 -17 5 -25 10 -8 5 -10 10 -5 10 6 0 17 -5
25 -10z m185 -4 c17 -1 -14 -4 -68 -4 -54 -1 -96 1 -94 6 5 6 90 6 162 -2z
m-379 -15 c-14 -5 -16 -10 -8 -15 7 -4 18 -4 25 0 9 5 9 4 1 -5 -8 -9 -17 -8
-38 3 -24 12 -25 15 -9 19 30 8 50 6 29 -2z m107 -8 c-7 -2 -21 -2 -30 0 -10
3 -4 5 12 5 17 0 24 -2 18 -5z m-170 -10 c-7 -2 -19 -2 -25 0 -7 3 -2 5 12 5
14 0 19 -2 13 -5z m-43 -7 c0 -6 -93 -37 -97 -32 -2 2 15 11 39 19 47 17 58
19 58 13z m3 -31 c-3 -9 -8 -14 -10 -11 -3 3 -2 9 2 15 9 16 15 13 8 -4z m50
8 c-7 -2 -19 -2 -25 0 -7 3 -2 5 12 5 14 0 19 -2 13 -5z m-203 -38 c-25 -13
-49 -24 -55 -24 -5 0 10 11 35 24 25 13 50 24 55 24 6 0 -10 -11 -35 -24z
m127 -52 c-3 -10 -5 -2 -5 17 0 19 2 27 5 18 2 -10 2 -26 0 -35z m-217 12 c0
-2 -10 -9 -22 -15 -22 -11 -22 -10 -4 4 21 17 26 19 26 11z m1175 -15 c3 -6
-1 -7 -9 -4 -18 7 -21 14 -7 14 6 0 13 -4 16 -10z m45 -35 c0 -8 -2 -15 -4
-15 -2 0 -6 7 -10 15 -3 8 -1 15 4 15 6 0 10 -7 10 -15z m-1305 -3 c-51 -44
-115 -93 -115 -88 0 6 110 96 118 96 3 0 2 -4 -3 -8z m340 -10 c-3 -3 -11 0
-18 7 -9 10 -8 11 6 5 10 -3 15 -9 12 -12z m890 -12 c3 -5 1 -10 -4 -10 -6 0
-11 5 -11 10 0 6 2 10 4 10 3 0 8 -4 11 -10z m-871 -16 c3 -8 2 -12 -4 -9 -6
3 -10 10 -10 16 0 14 7 11 14 -7z m-8 -51 c-10 -10 -19 5 -10 18 6 11 8 11 12
0 2 -7 1 -15 -2 -18z m-516 -48 c-24 -25 -46 -45 -49 -45 -3 0 15 20 39 45 24
25 46 45 49 45 3 0 -15 -20 -39 -45z m-50 -58 c0 -2 -12 -14 -27 -28 l-28 -24
24 28 c23 25 31 32 31 24z m664 -12 c-4 -8 -8 -15 -10 -15 -2 0 -4 7 -4 15 0
8 4 15 10 15 5 0 7 -7 4 -15z m-26 -31 c0 -17 -3 -22 -8 -13 -5 6 -6 18 -3 26
8 19 11 16 11 -13z m1141 12 c10 -12 9 -14 -6 -11 -10 2 -25 4 -33 5 -10 1 -9
4 5 10 11 5 21 9 21 9 1 1 7 -5 13 -13z m-83 -18 c4 -7 3 -8 -4 -4 -7 4 -12 2
-12 -5 0 -7 -3 -10 -6 -6 -6 5 3 27 11 27 2 0 7 -5 11 -12z m-1791 -74 c-50
-76 -69 -97 -35 -39 25 44 69 105 75 105 1 0 -16 -30 -40 -66z m1974 -55 c24
-43 28 -59 19 -65 -7 -4 -10 -4 -6 1 9 9 -11 50 -64 130 -29 45 -32 51 -10 26
16 -19 43 -60 61 -92z m-1262 64 c-3 -10 -5 -2 -5 17 0 19 2 27 5 18 2 -10 2
-26 0 -35z m1084 28 c-7 -11 -7 -30 -1 -50 12 -41 -16 -59 -57 -37 l-28 14 27
-1 c14 -1 24 -5 21 -9 -6 -11 9 -10 26 1 9 6 10 11 2 15 -6 4 -8 12 -5 18 4 6
2 13 -5 17 -7 5 -6 14 5 29 19 27 28 29 15 3z m-1127 -36 c3 -8 1 -15 -4 -15
-6 0 -10 7 -10 15 0 8 2 15 4 15 2 0 6 -7 10 -15z m1039 -10 c-3 -9 -8 -14
-10 -11 -3 3 -2 9 2 15 9 16 15 13 8 -4z m-1010 -20 c-3 -9 -8 -14 -10 -11 -3
3 -2 9 2 15 9 16 15 13 8 -4z m-25 -76 c-3 -20 -5 -19 -9 9 -3 20 -2 29 4 23
5 -5 7 -19 5 -32z m959 -11 c-3 -8 -6 -5 -6 6 -1 11 2 17 5 13 3 -3 4 -12 1
-19z m-1704 -3 c-3 -9 -8 -14 -10 -11 -3 3 -2 9 2 15 9 16 15 13 8 -4z m675
-9 c-7 -8 -15 -12 -17 -11 -5 6 10 25 20 25 5 0 4 -6 -3 -14z m1082 0 c0 -2
-9 -6 -20 -9 -11 -3 -18 -1 -14 4 5 9 34 13 34 5z m334 -12 c3 -8 2 -12 -4 -9
-6 3 -10 10 -10 16 0 14 7 11 14 -7z m-2128 -65 c-14 -30 -25 -50 -25 -46 -1
12 41 108 45 104 3 -2 -7 -28 -20 -58z m1760 38 c4 -4 0 -7 -9 -7 -9 0 -18 4
-21 9 -7 10 20 9 30 -2z m394 -32 c0 -5 -5 -3 -10 5 -5 8 -10 20 -10 25 0 6 5
3 10 -5 5 -8 10 -19 10 -25z m-1626 16 c3 -5 -2 -15 -11 -22 -14 -12 -16 -12
-8 0 6 11 4 13 -8 8 -10 -3 -17 -2 -17 3 0 5 8 11 18 13 9 3 18 5 19 6 1 0 4
-3 7 -8z m-50 -47 c3 -8 2 -12 -4 -9 -6 3 -10 10 -10 16 0 14 7 11 14 -7z
m1700 -34 c5 -17 4 -20 -2 -10 -5 8 -13 26 -16 40 -5 17 -4 20 2 10 5 -8 13
-26 16 -40z m-547 19 c-21 -13 -13 -30 11 -22 14 5 15 3 5 -7 -18 -19 -49 6
-32 26 6 8 17 14 23 14 6 0 3 -5 -7 -11z m-1666 -55 c-5 -16 -10 -21 -10 -12
-1 18 10 51 15 45 2 -1 -1 -16 -5 -33z m549 32 c0 -2 -7 -7 -16 -10 -8 -3 -12
-2 -9 4 6 10 25 14 25 6z m-100 -36 c0 -5 -5 -10 -11 -10 -5 0 -7 5 -4 10 3 6
8 10 11 10 2 0 4 -4 4 -10z m1789 -40 c0 -9 -4 -8 -9 5 -5 11 -9 27 -9 35 0 9
4 8 9 -5 5 -11 9 -27 9 -35z m-898 7 c-10 -9 -11 -8 -5 6 3 10 9 15 12 12 3
-3 0 -11 -7 -18z m-96 -25 c-3 -3 -11 0 -18 7 -9 10 -8 11 6 5 10 -3 15 -9 12
-12z m340 9 c3 -5 2 -12 -3 -15 -5 -3 -9 1 -9 9 0 17 3 19 12 6z m45 -6 c0
-12 -19 -12 -23 0 -4 9 -1 12 9 8 7 -3 14 -7 14 -8z m-450 -5 c-8 -5 -24 -9
-35 -9 -16 1 -16 2 5 9 35 11 48 11 30 0z m133 3 c-7 -2 -19 -2 -25 0 -7 3 -2
5 12 5 14 0 19 -2 13 -5z m-1339 -52 c-4 -23 -9 -40 -11 -37 -3 3 -2 23 2 46
4 23 9 39 11 37 3 -2 2 -23 -2 -46z m396 45 c0 -3 -4 -8 -10 -11 -5 -3 -10 -1
-10 4 0 6 5 11 10 11 6 0 10 -2 10 -4z m840 -50 c0 -12 -5 -7 -19 24 -11 24
-11 24 3 6 9 -11 16 -24 16 -30z m54 11 c7 -6 6 -7 -4 -4 -8 2 -16 12 -17 23
-2 13 -1 15 4 4 3 -8 11 -19 17 -23z m375 7 c2 -2 -5 -4 -16 -4 -12 0 -23 7
-27 15 -5 13 -2 14 17 4 12 -6 24 -13 26 -15z m619 -29 c0 -16 -2 -15 -8 5
-11 34 -11 60 0 35 5 -11 8 -29 8 -40z m-1161 39 c-3 -3 -12 -4 -19 -1 -8 3
-5 6 6 6 11 1 17 -2 13 -5z m273 2 c0 -2 -8 -10 -17 -17 -16 -13 -17 -12 -4 4
13 16 21 21 21 13z m17 -18 c-3 -8 -6 -5 -6 6 -1 11 2 17 5 13 3 -3 4 -12 1
-19z m184 -5 c-12 -20 -14 -14 -5 12 4 9 9 14 11 11 3 -2 0 -13 -6 -23z
m-1200 -10 c13 -16 12 -17 -3 -4 -10 7 -18 15 -18 17 0 8 8 3 21 -13z m684 8
c3 -5 0 -13 -6 -17 -7 -4 -9 -3 -5 4 3 6 -2 13 -11 15 -16 4 -16 5 -1 6 9 0
19 -3 23 -8z m-625 -11 c0 -5 -5 -10 -11 -10 -5 0 -7 5 -4 10 3 6 8 10 11 10
2 0 4 -4 4 -10z m57 -6 c-3 -3 -12 -4 -19 -1 -8 3 -5 6 6 6 11 1 17 -2 13 -5z
m950 0 c-3 -3 -12 -4 -19 -1 -8 3 -5 6 6 6 11 1 17 -2 13 -5z m126 -65 c-5 -5
-7 7 -4 29 5 34 6 35 9 8 2 -16 0 -32 -5 -37z m-1093 47 c0 -2 -7 -7 -16 -10
-8 -3 -12 -2 -9 4 6 10 25 14 25 6z m133 -3 c-7 -2 -21 -2 -30 0 -10 3 -4 5
12 5 17 0 24 -2 18 -5z m22 -13 c-3 -5 -12 -10 -18 -10 -7 0 -6 4 3 10 19 12
23 12 15 0z m51 -8 c-10 -2 -22 0 -28 6 -6 6 0 7 19 4 21 -5 23 -7 9 -10z
m1591 -39 c-3 -10 -5 -4 -5 12 0 17 2 24 5 18 2 -7 2 -21 0 -30z m-1973 1 c-3
-18 -1 -23 7 -18 8 4 9 3 5 -5 -4 -6 -11 -9 -15 -6 -11 6 -11 55 0 55 4 0 6
-12 3 -26z m448 1 c3 -14 2 -27 -1 -30 -4 -2 -8 10 -9 26 -3 36 4 38 10 4z
m-785 -7 c-3 -8 -6 -5 -6 6 -1 11 2 17 5 13 3 -3 4 -12 1 -19z m498 12 c3 -5
1 -10 -4 -10 -6 0 -11 5 -11 10 0 6 2 10 4 10 3 0 8 -4 11 -10z m-220 -22 c6
-4 2 -8 -7 -8 -10 0 -18 7 -18 17 0 9 3 12 8 7 4 -5 12 -12 17 -16z m158 15
c-13 -2 -35 -2 -50 0 -16 2 -5 4 22 4 28 0 40 -2 28 -4z m-118 -41 c-3 -3 -11
0 -18 7 -9 10 -8 11 6 5 10 -3 15 -9 12 -12z m174 -24 c1 -23 5 -46 8 -52 4
-7 2 -8 -5 -1 -12 11 -20 95 -9 95 2 0 4 -19 6 -42z m589 17 c-3 -3 -9 2 -12
12 -6 14 -5 15 5 6 7 -7 10 -15 7 -18z m-56 -33 c-8 -22 -21 6 -14 31 5 20 6
20 12 1 4 -10 5 -25 2 -32z m33 19 c-6 -5 -25 10 -25 20 0 5 6 4 14 -3 8 -7
12 -15 11 -17z m-1068 -124 c-2 -23 -3 -1 -3 48 0 50 1 68 3 42 2 -26 2 -67 0
-90z m2330 11 c-2 -24 -4 -5 -4 42 0 47 2 66 4 43 2 -24 2 -62 0 -85z m-2017
97 c0 -2 -7 -5 -15 -9 -9 -3 -15 0 -15 9 0 9 6 12 15 9 8 -4 15 -7 15 -9z
m530 -74 c-1 -13 -29 45 -29 59 0 8 6 0 14 -19 8 -18 15 -36 15 -40z m-513 37
c-3 -8 -6 -5 -6 6 -1 11 2 17 5 13 3 -3 4 -12 1 -19z m674 -1 c-10 -9 -11 -8
-5 6 3 10 9 15 12 12 3 -3 0 -11 -7 -18z m-714 7 c-3 -3 -12 -4 -19 -1 -8 3
-5 6 6 6 11 1 17 -2 13 -5z m106 -31 c-7 -2 -19 -2 -25 0 -7 3 -2 5 12 5 14 0
19 -2 13 -5z m104 1 c-9 -9 -66 -11 -61 -2 3 4 19 8 36 8 17 0 29 -3 25 -6z
m-137 -19 c0 -1 -7 -8 -15 -15 -13 -10 -15 -9 -15 8 0 15 5 20 15 16 8 -4 15
-7 15 -9z m665 -4 c3 -5 2 -12 -3 -15 -5 -3 -9 1 -9 9 0 17 3 19 12 6z m-560
-21 c-28 -12 -47 -12 -40 0 3 6 18 10 33 9 24 0 25 -1 7 -9z m502 -37 c-3 -10
-5 -2 -5 17 0 19 2 27 5 18 2 -10 2 -26 0 -35z m-180 15 c-3 -8 -6 -5 -6 6 -1
11 2 17 5 13 3 -3 4 -12 1 -19z m30 -10 c-3 -8 -6 -5 -6 6 -1 11 2 17 5 13 3
-3 4 -12 1 -19z m316 15 c3 -5 -8 -8 -23 -8 -15 0 -26 3 -23 8 2 4 13 7 23 7
10 0 21 -3 23 -7z m126 -39 c-5 -6 -6 -14 -2 -17 3 -4 1 -7 -5 -7 -6 0 -13 4
-16 9 -3 5 -16 7 -29 5 -20 -4 -20 -4 -2 4 11 5 26 7 33 5 6 -3 12 0 12 6 0 6
-4 11 -10 11 -5 0 -10 8 -10 17 0 15 2 14 19 -3 11 -11 15 -23 10 -30z m31 13
c0 -4 -6 -2 -14 5 -8 7 -12 17 -9 22 5 8 23 -12 23 -27z m-407 -13 c7 1 9 1 4
-1 -4 -3 -4 -10 -1 -15 5 -7 2 -8 -6 -3 -7 4 -16 2 -22 -6 -8 -11 -8 -10 -4 4
3 10 7 28 7 40 l2 22 4 -22 c2 -12 10 -21 16 -19z m115 11 c-3 -3 -9 2 -12 12
-6 14 -5 15 5 6 7 -7 10 -15 7 -18z m84 -20 c3 -14 1 -25 -3 -25 -5 0 -9 11
-9 25 0 14 2 25 4 25 2 0 6 -11 8 -25z m78 1 c0 -2 -9 -6 -20 -9 -11 -3 -18
-1 -14 4 5 9 34 13 34 5z m1157 -43 c-3 -10 -5 -2 -5 17 0 19 2 27 5 18 2 -10
2 -26 0 -35z m-2310 0 c-3 -10 -5 -4 -5 12 0 17 2 24 5 18 2 -7 2 -21 0 -30z
m993 34 c0 -1 -9 -10 -20 -20 -16 -13 -20 -14 -20 -3 0 8 8 17 18 19 9 3 18 5
20 6 1 0 2 0 2 -2z m325 -36 c3 -5 2 -12 -3 -15 -5 -3 -9 1 -9 9 0 17 3 19 12
6z m-1301 -76 c5 -29 4 -36 -3 -25 -6 8 -11 28 -11 44 0 39 6 31 14 -19z
m1299 28 c-3 -7 -6 -13 -8 -13 -2 0 -5 6 -8 13 -3 8 1 14 8 14 7 0 11 -6 8
-14z m982 -33 c-9 -41 -17 -33 -9 9 4 17 9 30 11 27 3 -2 2 -19 -2 -36z
m-2168 24 c-3 -3 -12 -4 -19 -1 -8 3 -5 6 6 6 11 1 17 -2 13 -5z m29 -14 c0
-12 -4 -16 -9 -11 -5 5 -6 14 -3 20 10 15 12 14 12 -9z m434 5 c0 -8 -2 -15
-4 -15 -2 0 -6 7 -10 15 -3 8 -1 15 4 15 6 0 10 -7 10 -15z m-73 -1 c-3 -3
-12 -4 -19 -1 -8 3 -5 6 6 6 11 1 17 -2 13 -5z m781 -3 c9 -5 4 -8 -16 -7 -17
1 -28 4 -25 9 6 9 25 9 41 -2z m-1194 -17 c3 -8 2 -12 -4 -9 -6 3 -10 10 -10
16 0 14 7 11 14 -7z m144 9 c-10 -2 -28 -2 -40 0 -13 2 -5 4 17 4 22 1 32 -1
23 -4z m399 1 c-3 -3 -12 -4 -19 -1 -8 3 -5 6 6 6 11 1 17 -2 13 -5z m73 -19
c4 3 6 -4 3 -15 -8 -30 -18 -24 -19 13 -1 17 1 24 3 14 2 -9 8 -15 13 -12z
m530 -4 c0 -6 -5 -13 -12 -17 -6 -4 -8 -3 -4 4 3 6 -2 13 -11 15 -14 4 -13 5
5 6 12 0 22 -3 22 -8z m-183 -23 c-3 -8 -6 -5 -6 6 -1 11 2 17 5 13 3 -3 4
-12 1 -19z m118 12 c-3 -5 -14 -10 -23 -9 -14 0 -13 2 3 9 27 11 27 11 20 0z
m-1088 -22 c-3 -8 -6 -5 -6 6 -1 11 2 17 5 13 3 -3 4 -12 1 -19z m-70 -20 c-3
-7 -5 -2 -5 12 0 14 2 19 5 13 2 -7 2 -19 0 -25z m1205 8 c7 4 8 2 4 -5 -9
-13 -26 -5 -25 12 0 9 2 8 6 -1 2 -6 10 -9 15 -6z m-888 -12 c3 -8 2 -12 -4
-9 -6 3 -10 10 -10 16 0 14 7 11 14 -7z m370 -14 c-6 -6 -10 -3 -10 10 0 13 4
16 10 10 7 -7 7 -13 0 -20z m1553 -12 c-3 -8 -6 -5 -6 6 -1 11 2 17 5 13 3 -3
4 -12 1 -19z m-2181 -135 c-5 -5 -56 128 -55 142 0 6 13 -23 29 -64 16 -41 28
-76 26 -78z m169 127 c-3 -5 -16 -10 -28 -9 -20 1 -20 2 3 9 14 4 26 8 28 9 2
1 0 -3 -3 -9z m428 -13 c3 -8 0 -14 -7 -14 -7 0 -13 6 -13 14 0 7 4 13 8 13 4
0 9 -6 12 -13z m24 -9 c-3 -8 -6 -5 -6 6 -1 11 2 17 5 13 3 -3 4 -12 1 -19z
m-542 -6 c-11 -11 -43 -8 -38 4 2 6 13 9 24 7 11 -3 17 -8 14 -11z m379 10 c3
-5 -1 -9 -9 -9 -8 0 -12 4 -9 9 3 4 7 8 9 8 2 0 6 -4 9 -8z m1705 -31 c-6 -18
-13 -30 -15 -28 -2 2 1 18 7 36 6 18 13 30 15 28 2 -2 -1 -18 -7 -36z m-2039
19 c0 -5 -2 -10 -4 -10 -3 0 -8 5 -11 10 -3 6 -1 10 4 10 6 0 11 -4 11 -10z
m60 6 c0 -2 -7 -7 -16 -10 -8 -3 -12 -2 -9 4 6 10 25 14 25 6z m343 -23 c-7
-2 -19 -2 -25 0 -7 3 -2 5 12 5 14 0 19 -2 13 -5z m62 -3 c-3 -5 -12 -10 -18
-10 -7 0 -6 4 3 10 19 12 23 12 15 0z m-61 -55 c11 -8 18 -17 15 -19 -2 -3
-15 4 -29 14 -14 11 -20 20 -15 19 6 0 19 -6 29 -14z m1607 -12 c-12 -20 -14
-14 -5 12 4 9 9 14 11 11 3 -2 0 -13 -6 -23z m-1476 -3 c-3 -5 -12 -10 -18
-10 -7 0 -6 4 3 10 19 12 23 12 15 0z m-147 -15 c2 -1 -8 -5 -22 -7 -16 -3
-27 0 -30 9 -4 10 1 12 22 7 15 -4 28 -8 30 -9z m269 -2 c0 -9 -4 -10 -14 -2
-7 6 -13 12 -13 14 0 1 6 2 13 2 8 0 14 -6 14 -14z m-757 -29 c0 -9 5 -12 12
-8 7 4 8 3 4 -5 -4 -6 0 -23 9 -38 9 -14 12 -22 6 -19 -11 7 -51 79 -51 91 0
3 5 3 10 0 6 -3 10 -13 10 -21z m193 1 c-3 -9 -8 -14 -10 -11 -3 3 -2 9 2 15
9 16 15 13 8 -4z m340 8 c-13 -2 -35 -2 -50 0 -16 2 -5 4 22 4 28 0 40 -2 28
-4z m185 0 c-15 -2 -42 -2 -60 0 -18 2 -6 4 27 4 33 0 48 -2 33 -4z m317 -3
c3 -6 -1 -7 -9 -4 -9 3 -16 1 -16 -6 0 -6 -5 -8 -11 -4 -8 4 -7 9 2 15 18 11
26 11 34 -1z m-644 -18 c-13 -2 -27 0 -32 5 -6 6 3 7 23 4 28 -4 29 -6 9 -9z
m405 0 c-10 -2 -22 0 -28 6 -6 6 0 7 19 4 21 -5 23 -7 9 -10z m104 8 c0 -5 -2
-10 -4 -10 -3 0 -8 5 -11 10 -3 6 -1 10 4 10 6 0 11 -4 11 -10z m-23 -26 c-3
-3 -12 -4 -19 -1 -8 3 -5 6 6 6 11 1 17 -2 13 -5z m-717 -14 c0 -5 -5 -10 -11
-10 -5 0 -7 5 -4 10 3 6 8 10 11 10 2 0 4 -4 4 -10z m1845 -10 c3 -5 1 -10 -4
-10 -6 0 -11 5 -11 10 0 6 2 10 4 10 3 0 8 -4 11 -10z m-985 -15 c0 -2 -6 -5
-13 -8 -8 -3 -14 1 -14 8 0 7 6 11 14 8 7 -3 13 -6 13 -8z m-810 1 c0 -2 -7
-7 -16 -10 -8 -3 -12 -2 -9 4 6 10 25 14 25 6z m1667 -3 c-4 -3 0 -15 10 -25
9 -10 11 -18 6 -18 -6 0 -14 8 -17 17 -6 15 -8 15 -16 3 -6 -8 -10 -10 -10 -4
0 10 20 34 29 34 2 0 1 -3 -2 -7z m-702 -33 c-3 -5 -12 -10 -18 -10 -7 0 -6 4
3 10 19 12 23 12 15 0z m-552 -7 c-18 -2 -48 -2 -65 0 -18 2 -4 4 32 4 36 0
50 -2 33 -4z m1314 1 c-3 -3 -12 -4 -19 -1 -8 3 -5 6 6 6 11 1 17 -2 13 -5z
m-1201 -22 c-10 -2 -22 0 -28 6 -6 6 0 7 19 4 21 -5 23 -7 9 -10z m-293 1 c-7
-2 -19 -2 -25 0 -7 3 -2 5 12 5 14 0 19 -2 13 -5z m159 0 c-6 -2 -10 -9 -6
-14 3 -5 0 -9 -5 -9 -12 0 -14 13 -4 23 3 4 11 7 17 6 6 0 5 -3 -2 -6z m68 2
c0 -7 -30 -13 -34 -7 -3 4 4 9 15 9 10 1 19 0 19 -2z m1287 -1 c-3 -3 -12 -4
-19 -1 -8 3 -5 6 6 6 11 1 17 -2 13 -5z m-1173 -16 c-3 -5 -9 -6 -14 -3 -5 3
-11 1 -15 -5 -8 -13 -25 -13 -25 1 0 5 4 8 9 4 5 -3 12 -2 15 3 3 5 12 9 20 9
8 0 13 -4 10 -9z m551 2 c-3 -5 -12 -10 -18 -10 -7 0 -6 4 3 10 19 12 23 12
15 0z m390 -20 c-3 -4 -13 -10 -24 -13 -13 -3 -18 -1 -14 9 2 7 12 10 21 6 15
-5 16 -4 2 14 -14 18 -14 18 2 5 10 -7 16 -17 13 -21z m-1348 14 c-3 -3 -12
-4 -19 -1 -8 3 -5 6 6 6 11 1 17 -2 13 -5z m138 -4 c3 -5 1 -10 -4 -10 -6 0
-11 5 -11 10 0 6 2 10 4 10 3 0 8 -4 11 -10z m110 -9 c-3 -6 -11 -11 -16 -11
-5 0 -4 6 3 14 14 16 24 13 13 -3z m40 9 c-3 -5 -12 -10 -18 -10 -7 0 -6 4 3
10 19 12 23 12 15 0z m45 2 c0 -5 -7 -9 -15 -9 -8 0 -12 4 -9 9 3 4 9 8 15 8
5 0 9 -4 9 -8z m117 2 c-3 -3 -12 -4 -19 -1 -8 3 -5 6 6 6 11 1 17 -2 13 -5z
m371 -1 c-10 -2 -28 -2 -40 0 -13 2 -5 4 17 4 22 1 32 -1 23 -4z m99 1 c-3 -3
-12 -4 -19 -1 -8 3 -5 6 6 6 11 1 17 -2 13 -5z m103 -16 c-11 -12 -27 -18 -42
-15 -21 4 -21 4 5 6 28 1 37 16 15 24 -7 2 -1 4 14 4 26 0 26 0 8 -19z m277
16 c-3 -3 -12 -4 -19 -1 -8 3 -5 6 6 6 11 1 17 -2 13 -5z m116 -1 c-7 -2 -19
-2 -25 0 -7 3 -2 5 12 5 14 0 19 -2 13 -5z m-1460 -20 c-7 -2 -19 -2 -25 0 -7
3 -2 5 12 5 14 0 19 -2 13 -5z m47 -3 c0 -5 -5 -10 -11 -10 -5 0 -7 5 -4 10 3
6 8 10 11 10 2 0 4 -4 4 -10z m460 1 c0 -5 -9 -7 -20 -4 -11 3 -20 7 -20 9 0
2 9 4 20 4 11 0 20 -4 20 -9z m1015 -1 c-27 -12 -43 -12 -25 0 8 5 22 9 30 9
10 0 8 -3 -5 -9z m-1505 -27 c8 -4 19 -5 23 -4 5 1 5 -4 2 -10 -5 -8 -10 -8
-18 0 -6 6 -21 11 -33 11 -13 0 -25 4 -28 9 -6 9 23 5 54 -6z m490 -8 c0 -2
-7 -2 -15 1 -8 4 -15 2 -15 -4 0 -6 6 -12 12 -14 7 -3 3 -7 -9 -10 -19 -5 -21
-3 -13 17 5 13 6 26 2 30 -4 4 3 2 16 -4 12 -6 22 -14 22 -16z m115 7 c-3 -3
-11 0 -18 7 -9 10 -8 11 6 5 10 -3 15 -9 12 -12z m469 10 c3 -5 -1 -9 -9 -9
-8 0 -12 4 -9 9 3 4 7 8 9 8 2 0 6 -4 9 -8z m281 -12 c-3 -5 -11 -10 -16 -10
-6 0 -7 5 -4 10 3 6 11 10 16 10 6 0 7 -4 4 -10z m85 6 c0 -2 -9 -6 -20 -9
-11 -3 -18 -1 -14 4 5 9 34 13 34 5z m-400 -10 c0 -2 -9 -6 -20 -9 -11 -3 -18
-1 -14 4 5 9 34 13 34 5z m250 -17 c0 -5 -4 -9 -8 -9 -5 0 -9 7 -9 15 0 8 4
12 9 9 4 -3 8 -9 8 -15z m-1325 -7 c-3 -3 -11 0 -18 7 -9 10 -8 11 6 5 10 -3
15 -9 12 -12z m586 -5 c-10 -9 -11 -8 -5 6 3 10 9 15 12 12 3 -3 0 -11 -7 -18z
m69 -21 c-1 -6 -6 -2 -13 10 -7 12 -19 19 -27 17 -13 -4 -13 -3 0 6 11 8 18 6
28 -6 6 -9 12 -22 12 -27z m55 26 c-3 -3 -11 0 -18 7 -9 10 -8 11 6 5 10 -3
15 -9 12 -12z m490 8 c-3 -5 -18 -9 -33 -9 l-27 1 30 8 c17 4 31 8 33 9 2 0 0
-3 -3 -9z m-1295 -4 c0 -3 -4 -8 -10 -11 -5 -3 -10 -1 -10 4 0 6 5 11 10 11 6
0 10 -2 10 -4z m65 -14 c-3 -3 -11 0 -18 7 -9 10 -8 11 6 5 10 -3 15 -9 12
-12z m1142 12 c-3 -3 -12 -4 -19 -1 -8 3 -5 6 6 6 11 1 17 -2 13 -5z m-382
-14 c-3 -5 -12 -10 -18 -10 -7 0 -6 4 3 10 19 12 23 12 15 0z m-850 -40 c21
-22 37 -40 34 -40 -3 0 -23 18 -44 40 -21 22 -37 40 -34 40 3 0 23 -18 44 -40z
m775 6 c0 -3 -4 -8 -10 -11 -5 -3 -10 -1 -10 4 0 6 5 11 10 11 6 0 10 -2 10
-4z m191 -14 c-7 -2 -18 1 -23 6 -8 8 -4 9 13 5 13 -4 18 -8 10 -11z m-776 -2
c-3 -5 -12 -10 -18 -10 -7 0 -6 4 3 10 19 12 23 12 15 0z m280 -10 c-3 -5 -34
-9 -68 -8 l-62 1 65 7 c36 4 66 7 68 8 2 1 0 -2 -3 -8z m142 -12 c-3 -8 -6 -5
-6 6 -1 11 2 17 5 13 3 -3 4 -12 1 -19z m1073 17 c0 0 -19 -19 -42 -40 -40
-37 -41 -37 -10 -4 18 19 30 38 27 40 -3 3 2 6 10 6 8 0 15 -1 15 -2z m-1173
-11 c-3 -3 -12 -4 -19 -1 -8 3 -5 6 6 6 11 1 17 -2 13 -5z m441 -1 c-10 -2
-26 -2 -35 0 -10 3 -2 5 17 5 19 0 27 -2 18 -5z m-695 -10 c-7 -2 -21 -2 -30
0 -10 3 -4 5 12 5 17 0 24 -2 18 -5z m317 -3 c11 -8 7 -9 -15 -4 -37 8 -45 14
-19 14 10 0 26 -5 34 -10z m128 -4 c-7 -8 -15 -12 -17 -11 -5 6 10 25 20 25 5
0 4 -6 -3 -14z m290 -11 c-3 -3 -9 2 -12 12 -6 14 -5 15 5 6 7 -7 10 -15 7
-18z m-903 -18 c19 -4 19 -5 -1 -6 -12 0 -28 7 -35 17 -12 15 -12 16 1 6 8 -7
24 -14 35 -17z m552 17 c-3 -3 -12 -4 -19 -1 -8 3 -5 6 6 6 11 1 17 -2 13 -5z
m948 -4 c3 -6 -1 -7 -9 -4 -18 7 -21 14 -7 14 6 0 13 -4 16 -10z m-880 -10
c-3 -5 -12 -10 -18 -10 -7 0 -6 4 3 10 19 12 23 12 15 0z m56 -4 c-10 -12 -8
-15 11 -19 20 -4 20 -4 -4 -6 -30 -1 -35 8 -16 27 17 17 23 15 9 -2z m259 10
c0 -3 -4 -8 -10 -11 -5 -3 -10 -1 -10 4 0 6 5 11 10 11 6 0 10 -2 10 -4z m435
-5 c3 -5 2 -12 -3 -15 -5 -3 -9 1 -9 9 0 17 3 19 12 6z m50 -9 c-3 -3 -11 0
-18 7 -9 10 -8 11 6 5 10 -3 15 -9 12 -12z m-157 1 c-10 -2 -28 -2 -40 0 -13
2 -5 4 17 4 22 1 32 -1 23 -4z m222 -28 c6 4 7 11 4 17 -4 7 -2 8 5 4 18 -11
-5 -35 -28 -29 -13 3 -17 11 -13 26 5 20 5 20 14 -2 4 -12 12 -19 18 -16z
m-575 16 c3 -5 2 -12 -3 -15 -5 -3 -9 1 -9 9 0 17 3 19 12 6z m116 -8 c13 -16
12 -17 -3 -4 -17 13 -22 21 -14 21 2 0 10 -8 17 -17z m-184 -15 c-3 -8 -6 -5
-6 6 -1 11 2 17 5 13 3 -3 4 -12 1 -19z m117 13 c4 -5 -3 -7 -14 -4 -23 6 -26
13 -6 13 8 0 17 -4 20 -9z m131 -1 c3 -6 -1 -7 -9 -4 -18 7 -21 14 -7 14 6 0
13 -4 16 -10z m110 0 c-3 -5 -12 -10 -18 -10 -7 0 -6 4 3 10 19 12 23 12 15 0z
m228 -2 c-2 -5 -10 -8 -18 -8 -8 0 -16 3 -18 8 -3 4 5 7 18 7 13 0 21 -3 18
-7z m-686 -14 c-3 -3 -12 -4 -19 -1 -8 3 -5 6 6 6 11 1 17 -2 13 -5z m83 2 c0
-2 -8 -10 -17 -17 -16 -13 -17 -12 -4 4 13 16 21 21 21 13z m627 -23 c-9 -10
-31 -27 -49 -37 -40 -23 -35 -17 17 23 46 34 54 38 32 14z m-670 1 c-3 -3 -12
-4 -19 -1 -8 3 -5 6 6 6 11 1 17 -2 13 -5z m-384 -21 c-7 -2 -19 -2 -25 0 -7
3 -2 5 12 5 14 0 19 -2 13 -5z m467 2 c0 -7 -39 -12 -49 -5 -7 4 1 7 18 8 17
0 31 -1 31 -3z m65 -5 c-3 -5 -11 -10 -16 -10 -6 0 -7 5 -4 10 3 6 11 10 16
10 6 0 7 -4 4 -10z m78 -12 c-2 -5 -10 -8 -18 -8 -8 0 -16 3 -18 8 -3 4 5 7
18 7 13 0 21 -3 18 -7z m55 -13 c-3 -3 -9 2 -12 12 -6 14 -5 15 5 6 7 -7 10
-15 7 -18z m-923 5 c-3 -5 -12 -7 -20 -3 -21 7 -19 13 6 13 11 0 18 -4 14 -10z
m42 4 c-3 -3 -12 -4 -19 -1 -8 3 -5 6 6 6 11 1 17 -2 13 -5z m190 0 c-3 -3
-12 -4 -19 -1 -8 3 -5 6 6 6 11 1 17 -2 13 -5z m-112 -82 c-4 -5 -76 33 -100
52 -11 9 8 2 42 -16 34 -18 60 -34 58 -36z m727 46 c-5 -5 -18 -8 -28 -5 -15
4 -14 5 4 6 15 1 21 5 16 13 -5 7 -3 8 5 3 8 -5 9 -11 3 -17z m358 2 c-14 -11
-29 -20 -35 -20 -5 0 4 9 20 20 38 25 48 25 15 0z m-721 -37 c2 -2 0 -3 -6 -3
-6 0 -21 9 -34 21 l-24 20 30 -17 c17 -10 32 -19 34 -21z m-143 2 c-3 -9 -10
-13 -16 -10 -6 4 -5 11 3 20 15 16 22 11 13 -10z m561 9 c-3 -3 -12 -4 -19 -1
-8 3 -5 6 6 6 11 1 17 -2 13 -5z m40 0 c-3 -3 -12 -4 -19 -1 -8 3 -5 6 6 6 11
1 17 -2 13 -5z m149 -7 c4 -3 -4 -4 -16 -2 -30 6 -40 16 -12 12 12 -2 24 -6
28 -10z m59 3 c-3 -5 -12 -10 -18 -10 -7 0 -6 4 3 10 19 12 23 12 15 0z m-740
-18 c-3 -3 -11 0 -18 7 -9 10 -8 11 6 5 10 -3 15 -9 12 -12z m562 2 c-3 -3
-12 -4 -19 -1 -8 3 -5 6 6 6 11 1 17 -2 13 -5z m113 -14 c-8 -5 -22 -9 -30 -9
-10 0 -8 3 5 9 27 12 43 12 25 0z m-855 -26 c24 -11 25 -13 5 -8 -14 4 -38 13
-55 20 -24 11 -25 13 -5 8 14 -4 39 -13 55 -20z m430 -4 c-3 -5 9 -13 27 -18
28 -7 23 -9 -34 -9 -37 -1 -70 2 -72 6 -3 4 9 5 26 3 21 -3 33 0 40 12 5 9 11
16 14 16 3 0 3 -4 -1 -10z m-310 -31 c14 -6 9 -7 -15 -3 -19 4 -44 11 -55 15
-14 6 -9 7 15 3 19 -4 44 -11 55 -15z m210 11 c3 -5 -1 -10 -10 -10 -9 0 -13
5 -10 10 3 6 8 10 10 10 2 0 7 -4 10 -10z m-152 -27 c-7 -2 -19 -2 -25 0 -7 3
-2 5 12 5 14 0 19 -2 13 -5z m58 -11 c-13 -2 -27 0 -32 5 -6 6 3 7 23 4 28 -4
29 -6 9 -9z m312 1 c-7 -2 -19 -2 -25 0 -7 3 -2 5 12 5 14 0 19 -2 13 -5z
m-125 -10 c-27 -2 -69 -2 -95 0 -27 2 -5 3 47 3 52 0 74 -1 48 -3z"/>
</g>
</svg>
